# xmcd CD database file
#
# Track frame offsets:
#	150
#	27514
#	50784
#	71434
#	98355
#	118255
#	140401
#	162066
#	178366
#	206971
#	239422
#
# Disc length: 3298 seconds
#
# Revision: 0
# Processed by: cddbd v1.4PL0 Copyright (c) Steve Scherf et al.
# Submitted via: CDex 1.51
#
DISCID=a30ce00b
DTITLE=Enders Room - Monolith
DYEAR=2002
DGENRE=Jazz
TTITLE0=Stereo 133
TTITLE1=I Could
TTITLE2=Seismo
TTITLE3=UKCM
TTITLE4=Monolith
TTITLE5=Unga
TTITLE6=Bobby Land
TTITLE7=Impressionist
TTITLE8=Komu
TTITLE9=Kyoto Remix
TTITLE10=I Could (Reprise)
EXTD=YEAR: 2002
EXTT0=
EXTT1=
EXTT2=
EXTT3=
EXTT4=
EXTT5=
EXTT6=
EXTT7=
EXTT8=
EXTT9=
EXTT10=
PLAYORDER=
